/* XPM */
static char *Pixmap[] = {
"48 48 256 3",
"000 c #261F14",
"001 c #252113",
"002 c #282214",
"003 c #2A281C",
"004 c #332713",
"005 c #332814",
"006 c #362B18",
"007 c #3A2D1A",
"008 c #3C301D",
"009 c #332D22",
"010 c #3C3120",
"011 c #3D3629",
"012 c #3A3630",
"013 c #42321E",
"014 c #433623",
"015 c #433927",
"016 c #403A2E",
"017 c #44382B",
"018 c #4B3B26",
"019 c #4C3C2A",
"020 c #413B30",
"021 c #503E2C",
"022 c #44403C",
"023 c #4A4132",
"024 c #4D4838",
"025 c #53422E",
"026 c #544331",
"027 c #51493B",
"028 c #594632",
"029 c #5D4936",
"030 c #5B4C3C",
"031 c #5D4D3D",
"032 c #5E5536",
"033 c #5F5139",
"034 c #614B37",
"035 c #604C38",
"036 c #614E3D",
"037 c #654E3D",
"038 c #63523C",
"039 c #66583D",
"040 c #69563F",
"041 c #69583D",
"042 c #454242",
"043 c #4B4948",
"044 c #524F50",
"045 c #53504D",
"046 c #5E5040",
"047 c #5A564C",
"048 c #555150",
"049 c #605341",
"050 c #665140",
"051 c #62574A",
"052 c #675C41",
"053 c #625949",
"054 c #665B4C",
"055 c #665F4F",
"056 c #685241",
"057 c #6A5541",
"058 c #6B5644",
"059 c #6C5541",
"060 c #6D5544",
"061 c #6A5941",
"062 c #695F42",
"063 c #6D5942",
"064 c #6E5944",
"065 c #6D5D42",
"066 c #6E5D45",
"067 c #685A4B",
"068 c #685D4F",
"069 c #6F5848",
"070 c #625D53",
"071 c #605F5B",
"072 c #715644",
"073 c #715945",
"074 c #715C46",
"075 c #745A46",
"076 c #725A48",
"077 c #715E48",
"078 c #735E4F",
"079 c #755B4A",
"080 c #755D4A",
"081 c #765E4D",
"082 c #785E4C",
"083 c #66604F",
"084 c #6D6143",
"085 c #6F6149",
"086 c #696051",
"087 c #6C6153",
"088 c #6F6959",
"089 c #706146",
"090 c #706447",
"091 c #706149",
"092 c #726549",
"093 c #746349",
"094 c #77604D",
"095 c #746649",
"096 c #77674D",
"097 c #75694B",
"098 c #7A614D",
"099 c #796A4D",
"100 c #746455",
"101 c #70685C",
"102 c #756D5E",
"103 c #7B6151",
"104 c #7C6251",
"105 c #7E6451",
"106 c #7E6554",
"107 c #7C6C52",
"108 c #7D7154",
"109 c #696565",
"110 c #7D6E60",
"111 c #726F73",
"112 c #7D7466",
"113 c #7A7568",
"114 c #7D7669",
"115 c #826353",
"116 c #806552",
"117 c #806554",
"118 c #866858",
"119 c #8B6D5D",
"120 c #807255",
"121 c #837756",
"122 c #857655",
"123 c #847759",
"124 c #857957",
"125 c #867B59",
"126 c #897E5C",
"127 c #847A6D",
"128 c #8E7060",
"129 c #827D71",
"130 c #807D7C",
"131 c #9A7A6B",
"132 c #89805D",
"133 c #8D825E",
"134 c #8C845F",
"135 c #8C8260",
"136 c #918662",
"137 c #948A66",
"138 c #988E67",
"139 c #988D6A",
"140 c #908A7D",
"141 c #9D936C",
"142 c #A1976F",
"143 c #A0996F",
"144 c #A29671",
"145 c #A39B73",
"146 c #A59D76",
"147 c #A89E75",
"148 c #A89E78",
"149 c #AAA079",
"150 c #ADA47A",
"151 c #ADA67E",
"152 c #AFA97D",
"153 c #B0A67D",
"154 c #B1A87C",
"155 c #878789",
"156 c #898786",
"157 c #8C8A86",
"158 c #8B8A8B",
"159 c #918B81",
"160 c #918A84",
"161 c #928D85",
"162 c #958E83",
"163 c #928F90",
"164 c #9B968A",
"165 c #9D988D",
"166 c #959495",
"167 c #989696",
"168 c #A39E96",
"169 c #A09E9E",
"170 c #A5A19A",
"171 c #A8A29B",
"172 c #A8A49B",
"173 c #AAA59E",
"174 c #B2AB80",
"175 c #B3AC83",
"176 c #B5AC82",
"177 c #B6AD84",
"178 c #B8AF85",
"179 c #B7B085",
"180 c #B9B286",
"181 c #BCB489",
"182 c #A4A4A4",
"183 c #AAA9A6",
"184 c #ACA8A0",
"185 c #AFADA5",
"186 c #ACABAB",
"187 c #B1AAA7",
"188 c #B2AFA8",
"189 c #B1AFAE",
"190 c #B5B3AD",
"191 c #BBB6AF",
"192 c #B3B2B2",
"193 c #B8B6B0",
"194 c #B8B6B7",
"195 c #BBB9B2",
"196 c #C2BA8D",
"197 c #C4BF91",
"198 c #C2BFB8",
"199 c #CBC395",
"200 c #CDC698",
"201 c #CFC99A",
"202 c #D3CB9B",
"203 c #C3C1BC",
"204 c #D6CEA1",
"205 c #D6D1A0",
"206 c #DAD3A2",
"207 c #E0D8A7",
"208 c #E2DAAB",
"209 c #E3DDA9",
"210 c #E5DEAA",
"211 c #E6DEAE",
"212 c #E6E0AD",
"213 c #E8E1AE",
"214 c #E9E2B0",
"215 c #EBE6B3",
"216 c #EDE6B2",
"217 c #EEE7B5",
"218 c #EEE8B2",
"219 c #EEE8B4",
"220 c #F0E7B2",
"221 c #F0E8B2",
"222 c #F0E8B4",
"223 c #C3C3C2",
"224 c #C5C1C2",
"225 c #C4C4C3",
"226 c Gray78",
"227 c #CBCBC4",
"228 c #CBCBCB",
"229 c #CFD1C9",
"230 c #D0CFCF",
"231 c #D1D1CD",
"232 c #D4D3D3",
"233 c #D8D7D4",
"234 c #DADAD9",
"235 c #E1DEDB",
"236 c #E3E1DF",
"237 c #E1E1E1",
"238 c #E5E4E3",
"239 c #E7E5E4",
"240 c #E9EAE6",
"241 c #E9E9E9",
"242 c #ECEBE9",
"243 c #EEEEEB",
"244 c #ECEDED",
"245 c #F0EFEB",
"246 c #F3F2EE",
"247 c #F1F1F1",
"248 c #F3F4F3",
"249 c #F4F3F1",
"250 c #F4F4F3",
"251 c #F5F5F4",
"252 c #F8F8F7",
"253 c #F9F9F9",
"254 c #FCFCFB",
"255 c #FEFEFE",
"255255255255255255255255255255255255255255255255255233171193251255255255255255255255255255255255255255255255255255255255255255255255255255255255",
"255255255255255255255255255255255255255255255255185069105117102253255255255255255255255255255255255255255255255255255255255255255255255255255255",
"255255255255255255255255255255255255255255255231036080146090103161255255255255255255255255255255255255255255255255255255255255255255255255255255",
"255255255255255255255255255255255255255255239054106133221204040060188255255255255255255255255255255255255255255255255255255255255255255255255255",
"255255255255255255255255255255255255255238086106096213219218177073050193255255255255255255255255255254255255255255255255255255255255255255255255",
"255255255255255255255255255255255255235087117089208221219217218147075058187253255255255255255251198113244255255255255255255255255255255255255255",
"255255255255255255255255255255255227046117095210218218219222218219151064060173253255255240173100116017223252255255255255255255255255255255255255",
"255255255255255255255255255255240030116121214219219219218221221218218181040056187232140078115057082008183248255255255255255255255255255255255255",
"255255255255255255255255255255231028058200219222219219218218218218217214084103019094103061137200064014169247255255255255255255255255255255255255",
"255255255255255255255255255255235007081061199219222222222222221218213097128119080092153213222216077029157244255255255255255255255255255255255255",
"255255255255255255255255255255249047005079061212222222222222221221134117063122197213218222219222136106070237255255255255255255255255255255255255",
"255255255255255255255255255255254228070006098177219222222219218221097141200141038180217222222219206060030224254255255255255255255255255255255255",
"255255255255255255255255255255255248228027098138222222222219221218199122059116119137222222222222219136106053250255255255255255255255255255255255",
"255255255255255255255255255255255255244086081133222222222219222218038106025005050089216221221222222212063072195255255255255255255255255255255255",
"255255255255255255255255255255252203127080082135217222222219222212058014005005008098177218222222219218180082031242255255255255255255255255255255",
"255255255255255255255255255190110106075096179206222219222219221206076008005005005058063212217218218218218108104165255255255255255255255255255255",
"255255255255255255255255255086117097200179096052221219222222222199081005005005005007106126219219218221218202063067252255255255255255255255255255",
"255255255255255255255255255083103095065103118077215218218221217178104004005005005005019080179218218218219222107079170255255255255255255255255255",
"255255255255255255255255255055118106056008018073212218218221217146104004004004005005005056063209218218219219151104101255255255255255255255255255",
"255255255255255255255255255068021005001009013074206218218218219139098004005005005005005006106137218218222219206064026255255255255255255255255255",
"255255255255255255255255255047009042111130014079200220218221218126082004021104105116035005028059208219219219213063019255255255255255255255255255",
"255255255255255255255255254203166182223231023098181217218222218120073050076124175141064029006104154219219219215064019255255255255255255255255255",
"255255255255255255255255255247237244253252053103150221219222221099118074178202219222137098005081126221219219211064049255255255255255255255255255",
"255255255255255255255255255255255255255254088103141219219222218093131126142033216220135104005057107221222219200079112255255255255255255255255255",
"255255255255255255255255255255255255255255129080136216219219216066104197077119090108080025005050099222219219141116184255255255255255255255255255",
"255255255255255255255255255255255255255255164073124218219219213060079205058034060076021005005069120218222215039098241255255255255255255255255255",
"255255255255255255255255255255255255255255170056107221218222206073117181096064005005005005007104147218222154082110255255255255255255255255255255",
"255255255255255255255255255255255255255255193035095221219222200080116124178080028004004007104065213220204040076198255255255255255255255255255255",
"255255255255255255255255255255255255255255203028089216217220180098019075196141057106117098065206216200041098114255255255255255255255255255255255",
"255255255255255255255255255255255255255255229021066213217221148104004057064144201147141181216206137060078102251255255255255255255255255255255255",
"255255255255255255255255255255255255255249129014074207220219139098005004029105061099123108091069106036159249255255255255255255255255255255255255",
"255255255255255255255255255255255255245112098035074202219222126098079028005006026059076076078049162236255255255255255255255255255255255255255255",
"255255255255255255255255255255255246114104033098115196219222107131038080021005005005008168249252255255255255255255255255255255255255255255255255",
"255255255255255255255255255255245112106041205132060174222222085038202138081028004005172255255255255255255255255255255255255255255255255255255255",
"255255255255255255255255255254129104065206219217134143218216032201218222145081018016252255255255255255255255255255255255255255255255255255255255",
"255255255255255255255255255249015116097212222222174135218209062209219222181069025012192255255255255255255255255255255255255255255255255255255255",
"255255255255255255255255255254129013117097214152076120222199059084210180058050001109223254255255255255255255255255255255255255255255255255255255",
"255255255255255255255255255255228016013106099061119095222176116116097040056000043169241255255255255255255255255255255255255255255255255255255255",
"255255255255255255255255255255248189011018117057028091221149105014116064002043166232254255255255255255255255255255255255255255255255255255255255",
"255255255255255255255255255255255242182016005005094097220196080018004001042163230254255255255255255255255255255255255255255255255255255255255255",
"255255255255255255255255255255255255241192024076040200220216125105014022158230253255255255255255255255255255255255255255255255255255255255255255",
"255255255255255255255255255255255255255247051105092211218221180058025071226253255255255255255255255255255255255255255255255255255255255255255255",
"255255255255255255255255255255255255255254160013117084209150066056000156237255255255255255255255255255255255255255255255255255255255255255255255",
"255255255255255255255255255255255255255255232016008116066066034001045186247255255255255255255255255255255255255255255255255255255255255255255255",
"255255255255255255255255255255255255255255248189011013098036000044167234255255255255255255255255255255255255255255255255255255255255255255255255",
"255255255255255255255255255255255255255255255242183016002003048167233253255255255255255255255255255255255255255255255255255255255255255255255255",
"255255255255255255255255255255255255255255255255241194158155182234254255255255255255255255255255255255255255255255255255255255255255255255255255",
"255255255255255255255255255255255255255255255255255250237234244255255255255255255255255255255255255255255255255255255255255255255255255255255255"
};
